<svg width="22" height="22" viewBox="0 0 22 22" fill="none" xmlns="http://www.w3.org/2000/svg">
<path d="M10.9999 6.99994C10.7347 6.99994 10.4804 7.1053 10.2928 7.29283C10.1053 7.48037 9.99994 7.73472 9.99994 7.99994C9.99994 8.26516 10.1053 8.51951 10.2928 8.70705C10.4804 8.89458 10.7347 8.99994 10.9999 8.99994C11.5304 8.99994 12.0391 9.21065 12.4142 9.58573C12.7892 9.9608 12.9999 10.4695 12.9999 10.9999C12.9999 11.5304 12.7892 12.0391 12.4142 12.4142C12.0391 12.7892 11.5304 12.9999 10.9999 12.9999C10.7347 12.9999 10.4804 13.1053 10.2928 13.2928C10.1053 13.4804 9.99994 13.7347 9.99994 13.9999C9.99994 14.2652 10.1053 14.5195 10.2928 14.707C10.4804 14.8946 10.7347 14.9999 10.9999 14.9999C12.0608 14.9999 13.0782 14.5785 13.8284 13.8284C14.5785 13.0782 14.9999 12.0608 14.9999 10.9999C14.9999 9.93907 14.5785 8.92166 13.8284 8.17151C13.0782 7.42137 12.0608 6.99994 10.9999 6.99994ZM20.7099 10.2899L18.3599 7.99994V4.63994C18.3599 4.37472 18.2546 4.12037 18.067 3.93283C17.8795 3.7453 17.6252 3.63994 17.3599 3.63994H14.0499L11.7099 1.28994C11.617 1.19621 11.5064 1.12182 11.3845 1.07105C11.2627 1.02028 11.132 0.994141 10.9999 0.994141C10.8679 0.994141 10.7372 1.02028 10.6154 1.07105C10.4935 1.12182 10.3829 1.19621 10.2899 1.28994L7.99994 3.63994H4.63994C4.37472 3.63994 4.12037 3.7453 3.93283 3.93283C3.7453 4.12037 3.63994 4.37472 3.63994 4.63994V7.99994L1.28994 10.2899C1.19621 10.3829 1.12182 10.4935 1.07105 10.6154C1.02028 10.7372 0.994141 10.8679 0.994141 10.9999C0.994141 11.132 1.02028 11.2627 1.07105 11.3845C1.12182 11.5064 1.19621 11.617 1.28994 11.7099L3.63994 14.0499V17.3599C3.63994 17.6252 3.7453 17.8795 3.93283 18.067C4.12037 18.2546 4.37472 18.3599 4.63994 18.3599H7.99994L10.3399 20.7099C10.4329 20.8037 10.5435 20.8781 10.6654 20.9288C10.7872 20.9796 10.9179 21.0057 11.0499 21.0057C11.182 21.0057 11.3127 20.9796 11.4345 20.9288C11.5564 20.8781 11.667 20.8037 11.7599 20.7099L14.0999 18.3599H17.4099C17.6752 18.3599 17.9295 18.2546 18.117 18.067C18.3046 17.8795 18.4099 17.6252 18.4099 17.3599V14.0499L20.7599 11.7099C20.8505 11.6137 20.921 11.5005 20.9676 11.3769C21.0141 11.2532 21.0356 11.1215 21.031 10.9895C21.0264 10.8575 20.9956 10.7277 20.9405 10.6076C20.8854 10.4875 20.807 10.3796 20.7099 10.2899ZM16.6599 12.9299C16.5655 13.0226 16.4903 13.133 16.4388 13.2549C16.3873 13.3767 16.3605 13.5076 16.3599 13.6399V16.3599H13.6399C13.5076 16.3605 13.3767 16.3873 13.2549 16.4388C13.133 16.4903 13.0226 16.5655 12.9299 16.6599L10.9999 18.5899L9.06994 16.6599C8.97732 16.5655 8.86688 16.4903 8.745 16.4388C8.62313 16.3873 8.49225 16.3605 8.35994 16.3599H5.63994V13.6399C5.63939 13.5076 5.61259 13.3767 5.56109 13.2549C5.5096 13.133 5.43443 13.0226 5.33994 12.9299L3.40994 10.9999L5.33994 9.06994C5.43443 8.97732 5.5096 8.86688 5.56109 8.745C5.61259 8.62313 5.63939 8.49225 5.63994 8.35994V5.63994H8.35994C8.49225 5.63939 8.62313 5.61259 8.745 5.56109C8.86688 5.5096 8.97732 5.43443 9.06994 5.33994L10.9999 3.40994L12.9299 5.33994C13.0226 5.43443 13.133 5.5096 13.2549 5.56109C13.3767 5.61259 13.5076 5.63939 13.6399 5.63994H16.3599V8.35994C16.3605 8.49225 16.3873 8.62313 16.4388 8.745C16.4903 8.86688 16.5655 8.97732 16.6599 9.06994L18.5899 10.9999L16.6599 12.9299Z" fill="black"/>
</svg>
